PathFileType	4	(X/Y/Z)	C:/Users/beibeiliu/ov580/test_trc\sequence.14_training_dense_left.trc
DataRate	CameraRate	NumFrames	NumMarkers	Units	OrigDataRate	OrigDataStartFrame	OrigNumFrames
120	120	18	19	mm	120	1	53
Frame#	Time	ThumbCMC			ThumbMCP			ThumbIP			ThumbTip			IndexMCP			IndexPIP			IndexTip			MiddleMCP			MiddlePIP			MiddleTip			RingMCP			RingPIP			RingTip			PinkyMCP			PinkyPIP			PinkyTip			BackHand1			BackHand2			BackHand3	
		X0	Y0	Z0	X1	Y1	Z1	X2	Y2	Z2	X3	Y3	Z3	X4	Y4	Z4	X5	Y5	Z5	X6	Y6	Z6	X7	Y7	Z7	X8	Y8	Z8	X9	Y9	Z9	X10	Y10	Z10	X11	Y11	Z11	X12	Y12	Z12	X13	Y13	Z13	X14	Y14	Z14	X15	Y15	Z15	X16	Y16	Z16	X17	Y17	Z17	X18	Y18	Z18	
0	0	-120.076	20.823	141.63	-104.965	-8.1474	125.302	-97.9357	-26.0968	101.705	-119.74	-38.2276	78.8034	-119.267	23.1239	67.1209	-104.371	10.1505	47.0978	-90.5478	-15.4461	31.2043	-140.608	16.3479	56.467	-133.528	2.42243	30.7401	-122.211	-21.4811	12.8318	-151.806	-1.33235	57.48	-140.539	-23.2223	44.2387	-123.396	-48.378	57.1168	-173.83	-14.3084	68.0827	-167.67	-28.6479	53.2975	-154.444	-45.4526	35.1027	-174.029	23.1533	100.998	-184.08	29.9607	134.034	-152.024	41.4361	120.681	
1	0.00833333	-116.313	18.747	149.743	-96.9821	-10.1861	140.57	-92.5311	-29.3927	121.611	-104.38	-47.1206	100.273	-105.313	9.03344	77.6882	-87.5006	-9.54693	61.3022	-72.9949	-34.4365	54.4687	-122.229	-0.0850201	65.4173	-112.25	-15.3632	47.8366	-96.479	-43.725	35.9489	-140.446	-16.199	69.7004	-120.662	-36.8881	60.3151	-101.36	-60.257	82.2082	-156.789	-25.0392	83.3605	-145.071	-46.6836	63.7247	-132.277	-63.3076	53.3856	-166.402	11.2079	109.522	-176.598	24.0413	133.226	-143.678	34.5174	123.552	
2	0.0166667	-117.225	25.6384	154.946	-93.5178	1.02432	149.601	-79.0778	-22.0806	128.925	-87.741	-38.1612	114.4	-94.3212	12.1138	81.7088	-80.0156	-4.83523	70.7512	-59.0702	-22.5236	66.5063	-116.528	-3.19943	73.8814	-98.2297	-19.2422	56.7582	-75.9935	-40.4555	50.2965	-125.96	-16.0047	78.7837	-100.821	-39.3861	71.2223	-83.0352	-53.8319	94.0317	-143.693	-32.3264	88.7322	-126.891	-50.9231	74.8445	-105.967	-64.7261	69.3581	-161.816	3.5549	111.646	-173.776	15.8064	135.117	-147.092	32.2616	126.788	
3	0.025	-121.579	39.1246	146.726	-95.1276	20.3899	143.028	-76.9048	3.70188	127.362	-77.2034	-16.0852	113.642	-103.49	23.8734	77.2245	-78.4289	15.7162	64.5205	-60.7792	-1.68416	63.7429	-117.078	6.40911	72.3803	-93.6104	-8.29151	53.7837	-67.4606	-23.719	50.305	-119.724	-11.4456	75.6225	-91.5095	-26.6957	71.3934	-70.5937	-29.8789	91.047	-131.306	-27.1537	91.2404	-110.517	-40.4997	76.012	-86.4332	-52.3527	70.7917	-158.496	-0.155276	108.546	-177.761	5.23753	131.878	-154.66	33.1041	120.209	
4	0.0333333	-142.725	45.5242	139.107	-106.564	42.8313	130.605	-83.6331	34.8021	117.399	-78.1419	9.64989	103.017	-123.03	36.9396	68.2128	-99.9007	33.1404	53.3963	-71.6069	29.0223	49.6037	-123.265	13.572	59.1972	-96.8491	8.18253	44.8602	-70.6892	3.41364	40.8298	-120.754	-9.74112	71.3889	-87.742	-7.44527	65.0885	-66.7982	-1.77138	88.9238	-123.408	-28.4465	86.1006	-102.746	-28.7369	73.1603	-74.8663	-33.0066	66.1128	-161.726	-6.27933	104.14	-178.245	0.239575	127.125	-167.725	26.9175	113.707	
5	0.0416667	-160.628	44.0583	126.382	-130.076	53.6265	118.867	-105.317	49.3865	101.476	-91.0351	28.7273	92.1924	-144.507	33.1185	60.0117	-116.895	33.2133	42.6057	-93.7524	40.2889	37.2543	-133.427	6.61784	55.5693	-111.22	11.2109	38.282	-80.5262	15.5213	33.813	-123.529	-9.53981	67.3831	-92.9608	1.66168	59.2425	-75.6435	17.5398	77.0947	-120.746	-23.9877	83.5748	-102.034	-21.9815	70.3989	-74.6063	-17.671	60.6699	-164.209	-13.1497	105.865	-177.78	-15.083	129.379	-180.917	16.4223	110.216	
6	0.05	-180.283	33.5745	119.924	-153.004	50.7129	107.033	-131.792	50.3623	93.2475	-113.027	33.608	82.1171	-158.659	13.1751	51.6079	-143.738	22.4888	35.0552	-117.302	32.4845	27.0975	-144.879	-7.41186	51.8639	-128.49	0.648239	33.2636	-98.5223	16.3999	22.8194	-134.557	-14.0398	65.0184	-107.723	-0.562347	51.7697	-94.2008	29.0144	65.8982	-121.152	-28.7272	82.3381	-101.735	-21.4665	63.3728	-82.5344	-12.1622	50.5778	-165.108	-24.4303	107.741	-176.497	-30.3036	133.637	-190.121	-6.54727	110.869	
7	0.0583333	-196.198	16.4178	121.526	-173.269	36.5239	102.186	-152.434	39.9662	77.6297	-131.501	25.9385	67.7541	-178.363	-8.78556	49.9212	-162.409	2.86127	26.9595	-140.98	13.4799	18.1095	-160.91	-25.5998	49.9194	-144.985	-18.4278	28.801	-122.005	6.31787	13.5155	-146.22	-29.4458	61.3588	-121.691	-13.8591	45.7727	-113.535	15.4603	54.3854	-129.179	-39.5392	77.2156	-116.104	-32.5423	60.0305	-97.3017	-17.7542	39.9637	-166.316	-42.4672	110.706	-177.22	-43.1823	135.118	-200.084	-24.1996	111.766	
8	0.0666667	-205.75	-0.501918	118.714	-186.525	16.6666	95.3093	-171.321	18.0693	73.3413	-150.018	3.57065	59.249	-197.979	-32.6044	53.6166	-183.815	-23.548	24.9193	-167.427	-4.56967	10.0724	-180.249	-47.9018	54.0495	-162.017	-41.6665	25.2039	-146.486	-18.4669	10.0457	-159.729	-50.3389	59.6226	-141.751	-33.9748	39.9212	-138.415	0.0238786	45.2647	-142.743	-55.0597	79.9048	-132.252	-50.753	56.6849	-116.882	-38.3525	33.2674	-175.983	-55.7494	111.085	-181.681	-55.4416	141.922	-206.638	-40.8972	118.178	
9	0.075	-214.615	-10.3962	122.422	-199.969	8.094	91.8122	-188.673	8.40111	67.797	-169.427	-8.90765	55.9218	-217.379	-47.5938	57.3556	-206.44	-45.0369	32.0866	-189.8	-27.7427	12.0273	-200.736	-63.553	55.9979	-190.271	-59.5526	27.4434	-173.329	-38.3035	9.21925	-181.452	-65.2474	60.3884	-163.03	-54.6353	38.3542	-157.508	-20.5306	38.413	-162.953	-66.4488	80.288	-149.791	-66.7734	53.1111	-141.328	-55.9125	30.286	-185.74	-67.105	116.468	-190.039	-63.0799	142.488	-218.382	-49.1968	125.186	
10	0.0833333	-221.441	-7.09307	121.763	-204.884	5.88151	93.3179	-194.999	4.13842	66.3694	-180.491	-13.46	48.7303	-230.509	-47.8898	61.0793	-225.256	-43.6852	34.1891	-204.818	-28.7537	13.935	-217.797	-65.6948	58.3675	-210.409	-63.0481	31.5523	-190.623	-46.4742	10.0742	-194.507	-71.0224	65.4442	-184.403	-62.1723	37.884	-173.842	-29.174	30.9231	-179.512	-71.1023	80.2256	-170.573	-74.0496	52.3134	-162.337	-63.0474	28.9217	-198.709	-67.4694	119.068	-199.862	-61.1578	143.56	-227.028	-48.0553	128.681	
11	0.0916667	-217.488	4.98452	125.359	-201.581	20.4234	94.1318	-192.665	16.7505	66.8896	-182.437	-3.22383	51.2152	-239.304	-30.3141	60.9789	-231.022	-27.2567	32.8681	-212.411	-19.2093	16.0368	-230.304	-50.7775	62.1928	-222.941	-53.5511	30.6085	-204.178	-39.3194	4.948	-209.684	-60.3633	67.5076	-202.645	-56.2337	37.7507	-183.51	-35.0497	22.8812	-194.925	-64.3184	73.8528	-187.265	-65.6477	52.5989	-173.774	-56.4351	25.3391	-211.436	-58.2754	117.09	-208.044	-52.9482	145.542	-234.167	-29.3872	126.854	
12	0.1	-210.831	18.8241	121.324	-188.8	27.3226	96.4915	-178.277	29.1302	68.5777	-172.415	11.4263	48.0974	-237.708	-6.62465	58.1728	-229.492	-3.60686	31.8748	-209.621	-0.47841	15.0926	-236.382	-29.0724	58.9277	-230.25	-34.5207	28.4121	-214.663	-30.927	4.1653	-217.17	-46.3157	64.5145	-211.013	-41.6014	33.1451	-190.189	-29.0652	15.5168	-199.448	-52.6871	74.7523	-193.545	-52.7733	49.6996	-180.177	-41.6208	22.3638	-218.605	-38.474	112.561	-214.17	-36.7475	145.079	-231.81	-11.4629	127.793	
13	0.108333	-196.731	27.3971	125.556	-172.436	33.1097	96.0018	-162.623	30.5	69.0898	-158.173	12.9878	48.6356	-227.244	6.42169	61.2573	-219.926	9.27192	33.8848	-195.605	12.7313	12.9469	-233.287	-15.49	56.5105	-230.134	-17.5197	27.6158	-217.72	-17.031	2.34748	-217.848	-31.0587	59.534	-210.502	-31.748	34.1894	-191.813	-22.4304	11.9917	-202.468	-39.1387	67.1409	-189.317	-37.5086	42.284	-174.702	-25.7155	23.9115	-217.314	-29.2912	110.397	-216.102	-29.6711	140.753	-228.202	-0.618149	129.098	
14	0.116667	-185.763	30.9378	126.001	-159.27	31.147	101.104	-147.902	27.8044	73.5142	-147.4	10.6135	52.4561	-216.501	15.6352	58.35	-206.167	17.4337	33.5152	-183.166	19.2707	15.1644	-225.089	-2.92553	58.9269	-224.565	-5.34971	28.9177	-211.215	-8.51611	-2.82969	-211.728	-21.3659	58.6177	-203.148	-22.1656	30.7731	-185.727	-15.1377	11.4169	-196.417	-35.0625	64.4779	-183.834	-30.7703	44.3113	-158.39	-16.2233	27.5535	-213.864	-27.1081	111.979	-210.899	-23.4193	138.623	-220.191	5.24514	125.873	
15	0.125	-172.917	27.7078	127.297	-147.389	22.5511	100.407	-136.696	18.5665	71.3601	-134.751	4.5787	54.271	-204.379	22.7498	60.5533	-192.698	25.2172	33.8619	-166.51	18.8967	15.3913	-214.951	0.107708	59.8663	-214.381	2.41448	26.1517	-204.481	-0.824965	0.268522	-203.213	-17.9247	59.4254	-193.785	-16.0461	32.3797	-173.106	-13.592	11.299	-189.675	-31.6347	64.8995	-172.707	-23.3907	46.1423	-144.869	-11.6494	39.1472	-208.154	-21.1746	108.462	-206.998	-22.0112	138.951	-213.124	10.8317	123.806	
16	0.133333	-156.756	25.7297	131.461	-131.065	15.6064	100.946	-122.411	8.96967	77.9241	-125.55	-5.70278	53.7384	-185.24	27.5632	63.8728	-169.466	24.5218	35.1279	-148.263	18.5216	20.012	-198.738	7.11615	60.8345	-197.876	7.15221	28.5046	-187.313	5.16852	1.54595	-190.553	-8.10144	58.1859	-179.78	-12.8416	30.4073	-156.164	-12.0501	9.95686	-180.338	-25.5568	65.2002	-160.596	-23.0869	49.0344	-131.095	-18.4683	50.8379	-201.028	-15.6797	112.459	-202.413	-14.9916	137.138	-199.306	15.4816	123.67	
17	0.141667	-133.794	21.0312	134.422	-113.173	2.01352	111.784	-104.479	-6.69091	85.6261	-109.403	-18.4646	60.3888	-153.808	36.2737	67.618	-139.371	26.2644	39.5779	-121.237	14.6006	25.3676	-174.735	21.3543	57.6311	-169.832	21.9897	31.5015	-159.649	14.2586	0.0202266	-174.521	-0.633542	58.3472	-164.114	-5.57098	34.047	-138.786	-8.37785	15.4082	-170.641	-18.2564	68.8525	-145.41	-26.163	51.9861	-120.519	-30.315	60.5608	-188.563	-0.282912	109.804	-192.569	-4.65696	136.451	-177.946	23.7204	127.023	
